<svg xmlns="http://www.w3.org/2000/svg" width="110" height="50" fill="none" viewBox="0 0 110 50"><path fill="#fff" d="M12.119 11H0v28.983L12.119 11Zm8.527 0H32.75v28.983L20.646 11Zm-4.264 10.682 7.714 18.302h-5.06l-2.305-5.828h-5.649l5.3-12.474ZM52.52 29.43l1.429 4.099c.049.101.12.15.245.15h2.748c.15 0 .174-.071.15-.223l-5.678-15.765c-.022-.127-.046-.151-.173-.151h-3.41c-.095 0-.15.072-.15.173-.048.829-.119 1.084-.222 1.328l-5.061 14.39c-.022.177.032.247.174.247h2.456c.15 0 .222-.048.276-.198l1.35-4.05h5.866Zm-5.083-2.676c.742-2.243 1.72-5.116 2.116-6.759h.022c.49 1.722 1.643 5.134 2.163 6.759h-4.301Zm16.953 7.17a11.643 11.643 0 0 0 4.643-.957c.125-.046.15-.101.15-.222-.06-.521-.094-1.045-.104-1.569V16.332c0-.095 0-.142-.119-.142h-2.676c-.1 0-.15.047-.15.172v5.03a8.814 8.814 0 0 0-1.056-.072c-4.32 0-6.974 2.85-6.974 6.411 0 4.13 2.725 6.191 6.286 6.191v.002Zm1.745-2.75a4.725 4.725 0 0 1-1.43.198c-1.958 0-3.56-1.105-3.56-3.79 0-2.376 1.65-3.779 3.837-3.779.441 0 .83.045 1.153.172v7.2Zm11.585-9.85c-3.687 0-5.969 2.825-5.969 6.315 0 3.117 1.817 6.284 5.914 6.284 3.467 0 5.898-2.55 5.898-6.365 0-3.363-2.062-6.237-5.841-6.237l-.002.002Zm-.15 2.477c2.084 0 2.97 1.793 2.97 3.838 0 2.527-1.304 3.78-2.82 3.78-1.87 0-2.975-1.57-2.975-3.836 0-2.329 1.176-3.782 2.825-3.782Zm8.76-7.612c-.1 0-.174.049-.174.174v16.802c0 .07.071.198.174.223a12.46 12.46 0 0 0 3.679.535c3.64 0 7.177-2.258 7.177-6.805 0-3.295-2.258-5.797-5.795-5.797a7.095 7.095 0 0 0-2.235.348l-.03-5.282c0-.173-.05-.198-.223-.198H86.33Zm7.832 11.228c0 2.724-1.863 4.002-3.877 4.002-.418 0-.788-.022-1.13-.126v-7.169c.389-.15.854-.274 1.715-.274 1.942 0 3.292 1.23 3.292 3.567Zm13.012.885c1.201 0 2.187-.024 2.527-.103.127-.024.174-.07.198-.174.071-.268.101-.828.101-1.516 0-2.336-1.405-5.186-5.037-5.186-3.711 0-5.77 3.024-5.77 6.433 0 3.024 1.595 6.165 6.063 6.165 1.674 0 2.755-.267 3.687-.707.095-.049.141-.128.141-.27V30.9c0-.119-.07-.141-.141-.095-.93.395-1.94.593-3.048.593-2.502 0-3.638-1.383-3.711-3.095h4.99Zm-4.99-2.116c.198-1.2.956-2.504 2.654-2.504 1.872 0 2.361 1.572 2.361 2.284v.196c-.103.024-.419.024-1.35.024h-3.665Z"/></svg>