<svg width="92" height="44" viewBox="0 0 92 44" fill="none" xmlns="http://www.w3.org/2000/svg"><g clip-path="url(#clip0_636_12843)"><path d="M86.4492 27.9189C86.4492 26.5826 87.4986 25.5073 88.8099 25.5073C90.1221 25.5073 91.1707 26.5826 91.1707 27.9197C91.1707 29.2552 90.1221 30.3304 88.8099 30.3304C87.4986 30.3563 86.4492 29.256 86.4492 27.9189Z" fill="#86BC25"/><path d="M13.781 21.4187C13.781 24.1964 13.046 26.3193 11.5512 27.84C10.0555 29.334 7.95671 30.0939 5.25481 30.0939H0.0078125V13.4767H5.62184C8.21949 13.4767 10.2399 14.1573 11.6555 15.5212C13.0727 16.8575 13.781 18.8236 13.781 21.4187ZM9.21634 21.5755C9.21634 20.0557 8.92771 18.9279 8.32374 18.1947C7.74649 17.4606 6.82891 17.0936 5.64855 17.0936H4.36308V26.3986H5.33235C6.67038 26.3986 7.64137 26.0049 8.27032 25.2183C8.90014 24.4066 9.21634 23.2004 9.21634 21.5755ZM28.4717 13.3716H32.6426V30.0681H28.4717V13.3716ZM46.3899 23.8561C46.3899 25.8739 45.8652 27.473 44.7899 28.5999C43.7138 29.7269 42.219 30.3041 40.3037 30.3041C38.4668 30.3041 36.9978 29.7269 35.9226 28.5741C34.8474 27.4204 34.2959 25.8481 34.2959 23.8561C34.2959 21.8374 34.8215 20.265 35.8959 19.1381C36.972 18.0112 38.4668 17.4606 40.3821 17.4606C41.5625 17.4606 42.6119 17.7225 43.5303 18.2464C44.4443 18.7615 45.1843 19.5372 45.6558 20.4744C46.128 21.4187 46.3899 22.5715 46.3899 23.8561ZM38.5194 23.8561C38.5194 24.9305 38.6512 25.7429 38.9398 26.2935C39.2285 26.844 39.6739 27.1327 40.3296 27.1327C40.9861 27.1327 41.4324 26.844 41.6943 26.2935C41.9562 25.7429 42.0872 24.9305 42.0872 23.8552C42.0872 22.8076 41.9562 21.9942 41.6943 21.4704C41.4315 20.9207 40.9594 20.6579 40.3037 20.6579C39.6748 20.6579 39.2018 20.9207 38.9131 21.4704C38.6771 21.9951 38.5194 22.7809 38.5194 23.8561ZM48.0424 17.67H52.2133V30.0681H48.0424V17.67ZM48.0424 13.3716H52.2133V16.0192H48.0424V13.3716ZM60.7144 26.9224C61.2917 26.9224 61.9465 26.7915 62.734 26.5029V29.6218C62.1826 29.8578 61.632 30.0413 61.134 30.1465C60.6352 30.2516 60.0312 30.3041 59.3497 30.3041C57.9333 30.3041 56.9364 29.9629 56.3066 29.2556C55.6777 28.5474 55.3882 27.473 55.3882 26.0049V20.894H53.9192V17.6967H55.3882V14.5252L59.6125 13.7912V17.6967H62.2877V20.8931H59.6125V25.7162C59.5599 26.502 59.9537 26.9224 60.7144 26.9224ZM70.657 26.9224C71.2343 26.9224 71.8891 26.7915 72.6766 26.5029V29.6218C72.1252 29.8578 71.5746 30.0413 71.0766 30.1465C70.5778 30.2516 69.9738 30.3041 69.2932 30.3041C67.8759 30.3041 66.879 29.9629 66.2492 29.2556C65.6203 28.5474 65.3308 27.473 65.3308 26.0049V20.894H63.8618V17.6967H65.3308V14.4727L69.5551 13.7912V17.6967H72.2311V20.8931H69.5542V25.7162C69.5017 26.502 69.8963 26.9224 70.657 26.9224ZM83.8529 18.9287C82.8552 17.9586 81.4388 17.4606 79.6286 17.4606C77.7133 17.4606 76.2443 18.0112 75.1949 19.1381C74.1723 20.2642 73.6476 21.8641 73.6476 23.9603C73.6476 25.979 74.199 27.5514 75.3268 28.6525C76.4546 29.7536 78.002 30.3041 80.0224 30.3041C80.9934 30.3041 81.8325 30.2249 82.5149 30.0939C83.2187 29.9568 83.8989 29.7185 84.5344 29.3866L83.9055 26.5821C83.4615 26.7621 83.0055 26.911 82.5407 27.0276C81.8769 27.1688 81.1999 27.239 80.5212 27.2369C79.7079 27.2369 79.0781 27.0276 78.6059 26.6338C78.1338 26.2409 77.8977 25.6904 77.871 25.0089H85.3478V23.0962C85.3478 21.2869 84.8498 19.8989 83.8529 18.9287ZM77.9494 22.3354C78.002 21.6548 78.2122 21.1559 78.5267 20.8414C78.8679 20.527 79.2616 20.3702 79.7596 20.3702C80.2851 20.3702 80.7306 20.5537 81.0451 20.894C81.3604 21.261 81.5181 21.7332 81.5439 22.3354H77.9494ZM25.3502 18.9287C24.3534 17.9586 22.9369 17.4606 21.1268 17.4606C19.2115 17.4606 17.7425 18.0112 16.6931 19.1381C15.6695 20.2642 15.1448 21.8641 15.1448 23.9603C15.1448 25.979 15.6962 27.5514 16.824 28.6525C17.9527 29.7536 19.5001 30.3041 21.5196 30.3041C22.4906 30.3041 23.3298 30.2249 24.0122 30.0939C24.7163 29.9569 25.3968 29.7186 26.0326 29.3866L25.4028 26.5821C24.9587 26.7621 24.5027 26.911 24.038 27.0276C23.3742 27.1688 22.6972 27.239 22.0185 27.2369C21.2052 27.2369 20.5753 27.0276 20.1032 26.6338C19.6311 26.2409 19.395 25.6904 19.3683 25.0089H26.8459V23.0962C26.8459 21.2869 26.347 19.8989 25.3502 18.9287ZM19.4475 22.3354C19.4992 21.6548 19.7095 21.1559 20.0248 20.8414C20.366 20.527 20.7589 20.3702 21.2569 20.3702C21.7824 20.3702 22.2279 20.5537 22.5432 20.894C22.8577 21.261 23.0153 21.7332 23.0412 22.3354H19.4475Z" fill="white"/></g><defs><clipPath id="clip0_636_12843"><rect width="91.327" height="43.0788" fill="white" transform="translate(0.0078125 0.312012)"/></clipPath></defs></svg>
