<svg width="131" height="44" viewBox="0 0 131 44" fill="none" xmlns="http://www.w3.org/2000/svg"><g clip-path="url(#clip0_636_12812)"><path fill-rule="evenodd" clip-rule="evenodd" d="M10.2658 15.5212V17.3472C10.2658 17.4669 10.1874 17.5462 10.0703 17.5462H2.34178V21.2791H8.71974C8.83688 21.2791 8.91526 21.3583 8.91526 21.4772V23.304C8.91526 23.4237 8.83774 23.5021 8.71974 23.5021H2.34178V29.023C2.34178 29.1419 2.26426 29.2211 2.14626 29.2211H0.209188C0.0920506 29.2211 0.0136719 29.1419 0.0136719 29.023V15.5204C0.0136719 15.4015 0.0911893 15.3223 0.209188 15.3223H10.0703C10.1874 15.3223 10.2658 15.4024 10.2658 15.5212Z" fill="white"/><path fill-rule="evenodd" clip-rule="evenodd" d="M21.9365 23.344C21.2369 21.3697 20.4635 19.4223 19.6179 17.506H19.1579C18.3092 19.422 17.5326 21.369 16.8298 23.3431L21.9365 23.344ZM26.0346 29.2207H23.9028C23.7848 29.2207 23.7065 29.1604 23.6772 29.0415C23.379 27.8457 23.04 26.6604 22.6608 25.4878H16.1158C15.7349 26.6591 15.3987 27.8446 15.1081 29.0415C15.0788 29.1612 15.0004 29.2207 14.8833 29.2207H12.829C12.6921 29.2207 12.6137 29.1414 12.6525 29.0019C13.885 24.5748 15.7635 19.6903 17.661 15.5802C17.7497 15.3915 17.8573 15.3218 18.0434 15.3218H20.8211C21.0071 15.3218 21.1139 15.3915 21.2027 15.5802C23.1199 19.68 24.9691 24.5748 26.2111 29.0019C26.2499 29.1414 26.1715 29.2207 26.0346 29.2207Z" fill="white"/><path fill-rule="evenodd" clip-rule="evenodd" d="M29.5352 22.3901C29.5352 18.081 32.3327 15.063 36.324 15.063H36.6168C39.1215 15.063 41.0586 16.3532 42.0861 18.2197C42.155 18.3385 42.1343 18.4376 42.0172 18.4979L40.2954 19.3609C40.1783 19.4212 40.0319 19.4212 39.9535 19.2722C39.23 18.0009 38.1439 17.3256 36.5393 17.3256H36.2464C33.7314 17.3256 32.0002 19.3514 32.0002 22.2902C32.0002 25.2384 33.7021 27.2134 36.2464 27.2134H36.5393C38.1827 27.2134 39.1413 26.6475 39.8751 25.7837C39.9724 25.6751 40.081 25.6545 40.1981 25.7147L41.9681 26.5881C42.037 26.6277 42.0663 26.6777 42.0663 26.7276C42.0663 26.7767 42.0465 26.8164 42.0077 26.8758C40.9225 28.4847 38.9656 29.4769 36.5789 29.4769H36.2852C32.225 29.4769 29.5352 26.6475 29.5352 22.3884" fill="white"/><path fill-rule="evenodd" clip-rule="evenodd" d="M57.6708 27.1957V29.0217C57.6708 29.1414 57.5924 29.2198 57.4752 29.2198H47.2033C47.0862 29.2198 47.0078 29.1414 47.0078 29.0217V15.5207C47.0078 15.4019 47.0853 15.3226 47.2033 15.3226H57.2987C57.4158 15.3226 57.4942 15.4019 57.4942 15.5207V17.3467C57.4942 17.4673 57.4167 17.5457 57.2987 17.5457H49.3359V21.1597H55.8121C55.9292 21.1597 56.0076 21.2389 56.0076 21.3578V23.1648C56.0076 23.2837 55.9301 23.3629 55.8121 23.3629H49.3359V26.9976H57.4752C57.5924 26.9976 57.6708 27.076 57.6708 27.1957ZM72.9693 25.2001C72.9693 23.909 72.1286 23.3233 70.2794 23.3233H65.6714V27.0562H70.2794C72.1571 27.0562 72.9693 26.5007 72.9693 25.2001ZM69.624 17.4862H65.6723V21.2191H69.624C71.3948 21.2191 72.2062 20.6334 72.2062 19.3527C72.2062 18.0719 71.3948 17.4862 69.624 17.4862ZM75.3568 25.4085C75.3568 27.8408 73.5171 29.2207 70.2699 29.2207H63.5397C63.4217 29.2207 63.3442 29.1414 63.3442 29.0226V15.5199C63.3442 15.401 63.4217 15.3218 63.5397 15.3218H69.6722C72.8332 15.3218 74.5541 16.5922 74.5541 18.9151C74.5541 20.444 73.7909 21.4474 72.2458 21.9125C74.4171 22.3793 75.3568 23.7005 75.3568 25.4085Z" fill="white"/><path fill-rule="evenodd" clip-rule="evenodd" d="M86.7917 27.2143C89.5995 27.2143 91.3695 25.2591 91.3695 22.2704C91.3695 19.2825 89.5987 17.3265 86.7917 17.3265H86.498C83.6901 17.3265 81.9201 19.2825 81.9201 22.2704C81.9201 25.2591 83.6901 27.2143 86.498 27.2143H86.7917ZM79.4551 22.2704C79.4551 18.081 82.194 15.063 86.498 15.063H86.7908C91.0956 15.063 93.8346 18.081 93.8346 22.2704C93.8346 26.4598 91.0956 29.4778 86.7917 29.4778H86.498C82.194 29.4778 79.4551 26.4598 79.4551 22.2704Z" fill="white"/><path fill-rule="evenodd" clip-rule="evenodd" d="M105.141 27.2143C107.949 27.2143 109.719 25.2591 109.719 22.2704C109.719 19.2825 107.949 17.3265 105.141 17.3265H104.848C102.041 17.3265 100.27 19.2825 100.27 22.2704C100.27 25.2591 102.041 27.2143 104.848 27.2143H105.141ZM97.8047 22.2704C97.8047 18.081 100.544 15.063 104.848 15.063H105.141C109.446 15.063 112.185 18.081 112.185 22.2704C112.185 26.4598 109.446 29.4778 105.141 29.4778H104.848C100.544 29.4778 97.8047 26.4598 97.8047 22.2704Z" fill="white"/><path fill-rule="evenodd" clip-rule="evenodd" d="M129.062 29.2208H126.538C126.371 29.2208 126.303 29.1811 126.195 29.052C124.424 26.9375 122.332 24.8324 120.551 23.2838H119.416V29.0218C119.416 29.1415 119.338 29.2199 119.22 29.2199H117.283C117.166 29.2199 117.088 29.1415 117.088 29.0218V15.5209C117.088 15.402 117.165 15.3228 117.283 15.3228H119.221C119.338 15.3228 119.416 15.402 119.416 15.5209V21.0005H120.57C122.478 19.2537 124.24 17.3675 125.677 15.4718C125.775 15.3426 125.853 15.3228 125.97 15.3228H128.357C128.474 15.3228 128.533 15.383 128.533 15.4623C128.533 15.5019 128.514 15.5519 128.464 15.6113C126.362 18.2417 124.278 20.3958 122.35 22.0642C124.808 24.1775 127.089 26.4883 129.169 28.9736C129.276 29.1028 129.218 29.2208 129.062 29.2208Z" fill="white"/></g><defs><clipPath id="clip0_636_12812"><rect width="130.057" height="43.0652" fill="white" transform="translate(0.015625 0.312012)"/></clipPath></defs></svg>
