<svg xmlns="http://www.w3.org/2000/svg" width="54" height="44" fill="none"><g fill="#fff" fill-rule="evenodd" clip-path="url(#a)" clip-rule="evenodd"><path d="M53.275 12.653h-8.868l.548-1.525h8.32v1.525Zm-23.638-1.525 8.233-.003.54 1.53c.003-.003-8.77.001-8.77 0 0-.003-.005-1.528-.003-1.528M23.097 11.128c1.357.13 2.537.611 3.541 1.527H11.716v-1.528h11.381M.04 12.652h10.334v-1.525H.039v1.525ZM53.274 15.513H43.39s.538-1.517.536-1.517h9.347v1.517Zm-13.847.002h-9.792v-1.52h9.255l.537 1.52ZM27.8 13.996c.197.501.43.928.43 1.517H11.719v-1.517H27.8M.039 15.513h10.334v-1.517H.039v1.517ZM42.378 18.38l.543-1.523 7.42.002v1.518l-7.963.004Zm-2.477-1.523.541 1.525h-7.889v-1.525h7.348Zm-11.54-.001c0 .523-.066 1.068-.219 1.525h-4.52v-1.525h4.738ZM2.894 18.381H7.35v-1.518H2.895v1.518Zm11.823 0h4.447v-1.525h-4.447v1.525Zm22.216 1.647s.002 1.154.001 1.157h-4.38v-1.519h8.35l.518 1.416c.003 0 .5-1.418.502-1.416h8.415v1.518h-4.362l-.003-1.156-.402 1.157-8.236-.003-.403-1.155m-22.216-.36h12.768c-.33.575-.759 1.089-1.266 1.517 0 0-11.503.002-11.503 0v-1.518ZM2.895 21.183H7.35v-1.518H2.895v1.518Zm43.083 2.862h4.36v-1.517h-4.36v1.517Zm-9.044-1.517h-4.38v1.516h4.383s.005-1.516-.002-1.516m8.164 0c-.022-.004-.512 1.516-.532 1.516l-6.212.002c-.004-.001-.545-1.522-.546-1.518h7.29Zm-30.383-.001h11.482c.523.44.984.951 1.369 1.517h-12.85v-1.517ZM7.35 24.045v-1.517H2.902v1.516H7.35Zm38.628 2.862h4.36V25.39h-4.36v1.518Zm-13.424 0h4.38v-1.518h-4.38v1.517Zm10.993.007c0-.007.538-1.527.546-1.525h-5.28c-.009 0 .54 1.518.54 1.518s4.192.014 4.194.007Zm-28.83-.008v-1.518h4.515s.003 1.52 0 1.52c-.005 0-4.515-.004-4.515-.002ZM28.2 25.388c.218.458.241 1.002.284 1.525h-4.783v-1.525H28.2ZM2.902 26.905H7.35V25.39H2.902v1.516Zm43.076 2.805h7.294v-1.517h-7.294v1.517Zm-16.345 0h7.302v-1.517h-7.3l-.002 1.517ZM42.566 29.71h-2.227l-.535-1.518h3.277l-.516 1.518M.004 28.192v1.518h10.36c.005.002-.005-1.517 0-1.517l-10.36-.001ZM28.296 28.192c-.11.5-.208 1.11-.576 1.517h-16v-1.516l16.576-.001Zm13.261 4.382h-.204l-.521-1.52h1.26l-.535 1.52Zm4.422.004h7.294v-1.525H45.98v1.525Zm-34.262-.004v-1.52l15.01.003c-1.005.959-2.384 1.5-3.868 1.52l-11.14-.003M29.634 32.577h7.3v-1.525h-7.3v1.525Zm-19.27-1.518s-.005 1.515 0 1.515-10.357.006-10.36.002c-.002-.001.003-1.521 0-1.521-.004 0 10.355.008 10.36.004Z"/></g><defs><clipPath id="a"><path fill="#fff" d="M.004.312h53.418v43.079H.004z"/></clipPath></defs></svg>
