<svg width="100" height="44" viewBox="0 0 100 44" fill="none" xmlns="http://www.w3.org/2000/svg"><g clip-path="url(#clip0_636_12919)"><mask id="mask0_636_12919" style="mask-type:luminance" maskUnits="userSpaceOnUse" x="0" y="13" width="100" height="27"><path d="M0.0078125 13.5762H99.9192V39.4153H0.0078125V13.5762Z" fill="white"/></mask><g mask="url(#mask0_636_12919)"><path d="M15.0893 24.9427L14.035 30.8091C13.8628 31.8659 13.1737 32.1467 12.5717 32.1467H7.96799L9.88267 21.3838C7.92493 20.4777 5.98871 19.917 4.39616 19.917C2.8906 19.917 1.6641 20.327 0.868256 21.2977C0.287737 21.9876 0.0078125 22.8506 0.0078125 23.8644C0.0078125 26.9478 2.39621 31.1768 6.50464 34.6479C10.1626 37.7124 14.1866 39.4152 17.1116 39.4152C18.5741 39.4152 19.7575 38.9622 20.5327 38.0776C21.1348 37.3886 21.3932 36.4816 21.3932 35.4679C21.3932 32.492 18.9841 28.3294 15.0893 24.9427Z" fill="#0099F8"/><path d="M53.3628 28.5017C53.3628 26.3881 46.0908 27.898 46.0908 23.5191C46.0908 19.5295 50.3939 18.4718 53.2121 18.4718C56.0518 18.4718 59.4729 19.1195 59.1499 22.6784H54.3955C54.4386 22.1393 54.2663 21.3839 52.7599 21.3839C51.9425 21.3839 51.3405 21.7508 51.3405 22.2685C51.3405 24.1883 58.87 23.0876 58.87 27.2726C58.87 30.7015 55.7288 32.5783 51.0175 32.5783C47.7686 32.5783 44.5637 31.6507 44.8858 28.0487H49.9202C49.834 28.6309 49.9632 29.6877 51.6195 29.6877C52.5024 29.6662 53.3628 29.2571 53.3628 28.5017ZM78.2761 21.5562L78.7274 18.8172H74.0161L71.6078 32.1468H75.5871C76.19 32.1468 76.8566 31.866 77.0504 30.8092L77.674 27.5965C78.2339 24.662 79.4604 23.6922 81.5042 23.6922C81.9556 23.6922 82.4293 23.7783 82.7729 23.8645L83.698 18.5588C83.4289 18.5042 83.1552 18.4754 82.8806 18.4727C80.9659 18.4727 79.5465 19.4425 78.3631 21.5777H78.2769L78.2761 21.5562ZM67.067 26.7326L67.7991 22.6569H70.4451L71.1333 18.8172H68.4873L69.2186 14.6976H65.3892C64.7863 14.6976 64.0981 14.9784 63.9259 16.0352L63.4315 18.8172H61.4307L60.7416 22.6569H62.7424L61.882 27.4664C61.7097 28.4371 61.6021 29.2132 61.6021 29.8609C61.6021 32.0176 63.3884 32.5567 68.7233 32.1898L69.3693 28.3941H68.4012C66.9378 28.4156 66.8517 27.9625 67.067 26.7326ZM45.2304 13.813H41.2503C40.6474 13.813 39.9592 14.0938 39.7869 15.1506L36.7319 32.1468H40.712C41.3149 32.1468 42.0039 31.866 42.1753 30.8092L45.2304 13.813ZM6.80584 13.5762C6.07459 13.5762 5.47254 14.0723 5.30028 14.8483L4.6543 18.3857H10.4638L7.9462 32.1683H12.5714C13.1959 32.1683 13.884 31.8875 14.0787 30.8307L16.1854 18.4081H20.3593C21.0914 18.4081 21.6935 17.912 21.8649 17.1359L22.5109 13.5986H6.80584V13.5762ZM26.0827 24.0152H30.8802C30.9372 23.7322 30.9305 23.4401 30.8606 23.16C30.7907 22.8799 30.6593 22.6189 30.476 22.396C30.2927 22.173 30.062 21.9936 29.8007 21.8708C29.5395 21.7481 29.2542 21.685 28.9655 21.6862C27.3953 21.6862 26.3196 22.5484 26.0827 24.0152ZM25.5883 26.7335C25.3515 28.2864 26.4057 29.3432 27.7821 29.3432C28.6434 29.3432 29.4392 28.9763 29.9336 28.1563H35.011C33.57 31.4784 30.1059 32.5783 26.9862 32.5783C23.1999 32.5783 20.4033 30.6584 20.4033 26.9057C20.4033 21.557 24.9639 18.4718 29.3092 18.4718C33.57 18.4718 35.936 20.9955 35.936 24.7921C35.936 25.395 35.8499 26.0642 35.7422 26.755H25.5883V26.7335ZM93.6581 24.5328C93.6581 23.4329 93.0991 22.5269 91.8296 22.5269C90.0871 22.5269 88.9468 24.3606 88.9468 26.755C88.9468 27.8549 89.3128 28.7601 90.5815 28.7601C92.4755 28.7816 93.6581 26.9488 93.6581 24.5328ZM99.9189 18.8396L97.5529 32.1683H92.7977L93.1207 30.4216H93.0345C91.6573 31.9745 90.1517 32.5783 88.517 32.5783C85.2681 32.5783 83.5903 30.3776 83.5903 27.2726C83.5903 22.6345 86.6876 18.4718 90.7107 18.4718C92.3679 18.4718 93.5935 19.0119 94.2826 20.3055H94.3687C94.5409 19.2057 95.2291 18.8387 95.9173 18.8387L99.9189 18.8396Z" fill="white"/></g></g><defs><clipPath id="clip0_636_12919"><rect width="99.9114" height="43.0652" fill="white" transform="translate(0.00976562 0.312012)"/></clipPath></defs></svg>
